<svg width="203" height="80" viewBox="0 0 203 80" fill="none" xmlns="http://www.w3.org/2000/svg">
<ellipse cx="184.101" cy="3.57581" rx="3.57581" ry="3.57581" fill="#FF7A00"/>
<rect x="173.076" y="13.1113" width="22.0508" height="7.15161" rx="3.5758" fill="url(#paint0_linear_16128_200563)"/>
<circle cx="176.652" cy="16.6871" r="3.57581" fill="#FF7A00"/>
<path d="M202.576 29.7982C202.576 31.7731 200.975 33.374 199 33.374L165.626 33.374L165.626 26.2224L199 26.2224C200.975 26.2224 202.576 27.8234 202.576 29.7982V29.7982Z" fill="url(#paint1_linear_16128_200563)"/>
<circle cx="199" cy="29.7985" r="3.57581" fill="#FF7A00"/>
<path d="M13.4025 68.6413C11.2789 68.6413 9.38552 68.2818 7.72223 67.5628C6.09677 66.8756 4.65644 65.8145 3.51836 64.4658C2.38393 63.1212 1.51366 61.493 0.907548 59.5812C0.301438 57.6694 -0.00107753 55.5381 2.88365e-06 53.1871C2.88365e-06 50.841 0.302518 48.7096 0.907548 46.793C1.51258 44.8763 2.38285 43.2481 3.51836 41.9084C4.65908 40.5631 6.09874 39.5034 7.72223 38.8139C9.3866 38.0951 11.2876 37.7354 13.4025 37.7354C16.3563 37.7354 18.781 38.3993 20.6766 39.7271C22.5722 41.0549 23.9548 42.8157 24.8246 45.0095L19.714 47.3934C19.2991 46.0272 18.569 44.943 17.5261 44.1238C16.4833 43.3046 15.109 42.9019 13.4049 42.9019C11.1323 42.9019 9.41766 43.6098 8.26108 45.0257C7.10451 46.4416 6.52729 48.2837 6.52946 50.552V55.819C6.52946 58.0878 7.10667 59.9299 8.26108 61.3453C9.4155 62.7606 11.1301 63.4685 13.4049 63.4691C15.2249 63.4691 16.6688 63.0267 17.753 62.1361C18.8372 61.2456 19.6978 60.0617 20.3363 58.5845L25.049 61.0852C24.0637 63.5161 22.5868 65.3838 20.6183 66.6884C18.6498 67.993 16.2445 68.644 13.4025 68.6413Z" fill="#081131"/>
<path d="M47.9514 67.9614L37.8955 38.4185H44.0295L48.5211 51.8817L51.5305 62.2196H51.8733L54.8828 51.8817L59.4845 38.4185H65.3925L55.2223 67.9614H47.9514Z" fill="#081131"/>
<path d="M90.0406 67.9614C88.414 67.9614 87.1637 67.4968 86.2897 66.5677C85.4161 65.6382 84.8903 64.4544 84.7023 63.0161H84.4203C83.8504 64.8749 82.8086 66.2762 81.2949 67.22C79.7813 68.1637 77.9446 68.6374 75.7848 68.6412C72.7154 68.6412 70.3571 67.845 68.71 66.2524C67.0619 64.6594 66.2378 62.525 66.2378 59.8299C66.2378 56.8761 67.3071 54.6599 69.4458 53.1814C71.5845 51.7028 74.7177 50.9636 78.8454 50.9636H84.1829V48.463C84.1829 46.643 83.6907 45.2417 82.7065 44.2591C81.7222 43.2765 80.1897 42.7849 78.1088 42.7843C76.3666 42.7843 74.9486 43.166 73.8442 43.9188C72.7333 44.6902 71.7875 45.6756 71.0624 46.8172L67.3674 43.465C68.3516 41.8001 69.7343 40.4263 71.5153 39.3438C73.2964 38.2612 75.6252 37.721 78.5018 37.7232C82.3297 37.7232 85.2649 38.6145 87.3074 40.3972C89.3499 42.1798 90.3733 44.7374 90.3777 48.07V62.8986H93.503V67.9541H90.0406V67.9654V67.9614ZM77.5448 63.9285C79.475 63.9285 81.0661 63.5028 82.3183 62.6514C83.5705 61.8001 84.1956 60.6548 84.1934 59.2157V54.9568H78.9645C74.6839 54.9568 72.5433 56.2824 72.5428 58.9337V59.9572C72.5428 61.2845 72.9871 62.2784 73.8757 62.9391C74.7644 63.5998 75.9874 63.9296 77.5448 63.9285Z" fill="#081131"/>
<path d="M103.316 67.9615C101.196 67.9615 99.6144 67.4213 98.5696 66.3409C97.5249 65.2605 97.0049 63.7541 97.0098 61.8218V25.751H103.205V62.9003H107.298V67.9558L103.316 67.9615Z" fill="#081131"/>
<path d="M137.124 70.7399C137.124 73.8105 135.949 76.1209 133.6 77.6713C131.252 79.2217 127.426 79.998 122.122 80.0001C119.7 80.0001 117.644 79.8397 115.955 79.5188C114.266 79.1979 112.883 78.7333 111.806 78.1251C110.728 77.5165 109.943 76.7808 109.45 75.9065C108.957 75.0321 108.708 74.0314 108.708 72.8978C108.708 71.2715 109.152 69.9993 110.042 69.0893C110.933 68.1794 112.172 67.557 113.765 67.2143V66.5895C111.53 65.87 110.413 64.3542 110.413 62.0421C110.413 60.5268 110.921 59.3681 111.945 58.5464C112.968 57.7248 114.196 57.1527 115.64 56.8156V56.5887C113.898 55.7536 112.563 54.5884 111.635 53.0931C110.708 51.5978 110.243 49.8481 110.242 47.8439C110.242 44.8123 111.257 42.3692 113.285 40.5147C115.314 38.6602 118.221 37.7326 122.008 37.7321C124.093 37.7321 125.872 38.0346 127.346 38.6396V37.5173C127.346 36.1893 127.661 35.161 128.281 34.4195C128.901 33.6781 129.879 33.3135 131.207 33.3135H135.753V38.3139H129.729V39.8292C131.028 40.6716 132.086 41.836 132.8 43.2089C133.519 44.5919 133.878 46.1352 133.878 47.839C133.878 50.8312 132.855 53.2465 130.809 55.0848C128.763 56.9231 125.845 57.8415 122.058 57.8398C120.619 57.8398 119.333 57.6886 118.197 57.3861C117.473 57.6337 116.799 58.0082 116.205 58.4921C115.638 58.9678 115.354 59.582 115.354 60.3396C115.354 61.1362 115.714 61.7058 116.432 62.0413C117.151 62.3768 118.175 62.5502 119.503 62.5502H126.773C130.407 62.5502 133.04 63.2794 134.672 64.738C136.304 66.1965 137.121 68.1972 137.124 70.7399ZM131.327 71.4206C131.327 70.3972 130.939 69.5844 130.16 68.9759C129.38 68.3674 127.972 68.0684 125.928 68.0684H115.928C114.561 68.8652 113.879 69.9996 113.881 71.4716C113.881 72.6871 114.362 73.6595 115.33 74.3977C116.299 75.1359 117.935 75.5045 120.247 75.5045H124.108C128.921 75.5153 131.327 74.1551 131.327 71.4238V71.4206ZM122.062 53.3507C123.881 53.3507 125.292 52.9456 126.293 52.1288C127.294 51.312 127.798 50.0544 127.798 48.3503V47.2159C127.798 45.5126 127.296 44.2534 126.293 43.4383C125.29 42.6231 123.879 42.2155 122.062 42.2155C120.242 42.2155 118.831 42.6231 117.83 43.4383C116.824 44.2486 116.325 45.5126 116.325 47.2159V48.3503C116.325 50.0541 116.827 51.3136 117.83 52.1288C118.837 52.9545 120.247 53.358 122.062 53.358V53.3507Z" fill="#081131"/>
<path d="M150.471 68.6416C148.424 68.6416 146.558 68.2821 144.873 67.5631C143.227 66.8717 141.76 65.8122 140.587 64.4661C139.413 63.1215 138.504 61.4933 137.859 59.5815C137.214 57.6698 136.892 55.5384 136.892 53.1874C136.892 50.8413 137.214 48.7099 137.859 46.7933C138.504 44.8766 139.413 43.2485 140.587 41.9087C141.761 40.5636 143.227 39.5041 144.873 38.8109C146.56 38.0919 148.426 37.7324 150.471 37.7324C152.515 37.7324 154.381 38.093 156.068 38.8142C157.717 39.507 159.185 40.5664 160.363 41.912C161.535 43.256 162.444 44.8842 163.09 46.7965C163.735 48.7088 164.058 50.8402 164.058 53.1906C164.058 55.5411 163.735 57.6725 163.09 59.5848C162.444 61.4971 161.535 63.1253 160.363 64.4693C159.186 65.8157 157.717 66.875 156.068 67.5663C154.381 68.2837 152.515 68.6421 150.471 68.6416ZM150.471 63.4702C152.59 63.4702 154.299 62.822 155.582 61.5255C156.866 60.229 157.512 58.2786 157.512 55.6791V50.7038C157.512 48.1038 156.869 46.1548 155.582 44.8566C154.295 43.5585 152.592 42.9103 150.471 42.9119C148.347 42.9119 146.643 43.5601 145.36 44.8566C144.077 46.1531 143.433 48.1022 143.429 50.7038V55.6767C143.429 58.2761 144.073 60.2249 145.36 61.523C146.647 62.8211 148.351 63.4702 150.471 63.4702V63.4702Z" fill="#081131"/>
<path d="M28.4014 38.3188H34.6132V67.9615H28.4014V38.3188Z" fill="#081131"/>
<path d="M31.513 33.3182C32.5054 33.3037 33.4523 32.8993 34.1489 32.1923C34.8456 31.4854 35.2361 30.5327 35.2361 29.5402C35.2361 28.5477 34.8456 27.595 34.1489 26.888C33.4523 26.1811 32.5054 25.7767 31.513 25.7621V25.7621C31.0122 25.7548 30.5149 25.8471 30.0501 26.0337C29.5853 26.2202 29.1623 26.4974 28.8055 26.8489C28.4488 27.2005 28.1655 27.6194 27.9721 28.0815C27.7788 28.5435 27.6792 29.0393 27.6792 29.5402C27.6792 30.041 27.7788 30.5369 27.9721 30.9989C28.1655 31.4609 28.4488 31.8799 28.8055 32.2314C29.1623 32.583 29.5853 32.8601 30.0501 33.0467C30.5149 33.2333 31.0122 33.3256 31.513 33.3182Z" fill="#081131"/>
<defs>
<linearGradient id="paint0_linear_16128_200563" x1="195.127" y1="16.5638" x2="173" y2="16.5638" gradientUnits="userSpaceOnUse">
<stop stop-color="#FF7A00"/>
<stop offset="1" stop-color="#FF7A00" stop-opacity="0"/>
</linearGradient>
<linearGradient id="paint1_linear_16128_200563" x1="165.626" y1="29.9215" x2="202.5" y2="29.9215" gradientUnits="userSpaceOnUse">
<stop stop-color="#FF7A00"/>
<stop offset="1" stop-color="#FF7A00" stop-opacity="0"/>
</linearGradient>
</defs>
</svg>
